<svg width="50" height="50" viewBox="0 0 50 50" fill="none" xmlns="http://www.w3.org/2000/svg">
<path fill-rule="evenodd" clip-rule="evenodd" d="M6.25 14.0625C6.25 13.6481 6.41462 13.2507 6.70765 12.9576C7.00067 12.6646 7.3981 12.5 7.8125 12.5H42.1875C42.6019 12.5 42.9993 12.6646 43.2924 12.9576C43.5854 13.2507 43.75 13.6481 43.75 14.0625C43.75 14.4769 43.5854 14.8743 43.2924 15.1674C42.9993 15.4604 42.6019 15.625 42.1875 15.625H7.8125C7.3981 15.625 7.00067 15.4604 6.70765 15.1674C6.41462 14.8743 6.25 14.4769 6.25 14.0625ZM6.25 25C6.25 24.5856 6.41462 24.1882 6.70765 23.8951C7.00067 23.6021 7.3981 23.4375 7.8125 23.4375H42.1875C42.6019 23.4375 42.9993 23.6021 43.2924 23.8951C43.5854 24.1882 43.75 24.5856 43.75 25C43.75 25.4144 43.5854 25.8118 43.2924 26.1049C42.9993 26.3979 42.6019 26.5625 42.1875 26.5625H7.8125C7.3981 26.5625 7.00067 26.3979 6.70765 26.1049C6.41462 25.8118 6.25 25.4144 6.25 25ZM6.25 35.9375C6.25 35.5231 6.41462 35.1257 6.70765 34.8326C7.00067 34.5396 7.3981 34.375 7.8125 34.375H42.1875C42.6019 34.375 42.9993 34.5396 43.2924 34.8326C43.5854 35.1257 43.75 35.5231 43.75 35.9375C43.75 36.3519 43.5854 36.7493 43.2924 37.0424C42.9993 37.3354 42.6019 37.5 42.1875 37.5H7.8125C7.3981 37.5 7.00067 37.3354 6.70765 37.0424C6.41462 36.7493 6.25 36.3519 6.25 35.9375Z" fill="#FF7E36"/>
</svg>
