<svg width="42" height="74" viewBox="0 0 42 74" fill="none" xmlns="http://www.w3.org/2000/svg">
<path d="M8.83391 2.21706L40.9516 34.2395C41.3329 34.6207 41.6023 35.0337 41.7598 35.4785C41.9199 35.9232 42 36.3997 42 36.908C42 37.4163 41.9199 37.8928 41.7598 38.3376C41.6023 38.7824 41.3329 39.1953 40.9516 39.5766L8.83391 71.6943C7.9444 72.5838 6.83251 73.0286 5.49824 73.0286C4.16397 73.0286 3.02032 72.552 2.06727 71.599C1.11422 70.6459 0.637696 69.5341 0.637696 68.2633C0.637696 66.9926 1.11422 65.8807 2.06727 64.9277L30.0869 36.908L2.06727 8.8884C1.17776 7.99888 0.732999 6.90352 0.732999 5.60229C0.732999 4.29852 1.20952 3.1701 2.16257 2.21706C3.11562 1.26401 4.22751 0.787483 5.49824 0.787483C6.76897 0.787483 7.88086 1.26401 8.83391 2.21706Z" fill="#FF5E34"/>
</svg>
