<svg width="42" height="74" viewBox="0 0 42 74" fill="none" xmlns="http://www.w3.org/2000/svg">
<path d="M33.8038 71.599L1.68605 39.5765C1.30483 39.1953 1.03543 38.7823 0.877862 38.3376C0.71775 37.8928 0.637695 37.4163 0.637695 36.908C0.637695 36.3997 0.71775 35.9232 0.877862 35.4784C1.03543 35.0337 1.30483 34.6207 1.68605 34.2395L33.8038 2.12174C34.6933 1.23223 35.8052 0.787476 37.1395 0.787476C38.4737 0.787476 39.6174 1.264 40.5704 2.21705C41.5235 3.1701 42 4.28199 42 5.55272C42 6.82345 41.5235 7.93534 40.5704 8.88839L12.5508 36.908L40.5704 64.9276C41.4599 65.8172 41.9047 66.9125 41.9047 68.2138C41.9047 69.5175 41.4282 70.6459 40.4751 71.599C39.5221 72.552 38.4102 73.0286 37.1395 73.0286C35.8687 73.0286 34.7568 72.552 33.8038 71.599Z" fill="#FF5E34"/>
</svg>
