<svg width="258" height="259" viewBox="0 0 258 259" fill="none" xmlns="http://www.w3.org/2000/svg">
<path d="M251.821 134.523C244.274 130.275 237.726 135.31 234.398 144.72C234.094 145.551 203.696 228.864 127.872 229.984C127.404 229.984 126.943 230.003 126.475 230.003C55.1309 230.003 24.3608 148.1 23.0836 144.581C19.6892 135.245 13.6689 131.043 6.18086 135.272C-1.29235 139.52 -1.16112 150.008 2.21891 159.418C3.80121 163.835 38.2453 259 129.001 259C128.407 259 129.595 259 129.001 259C223.657 257.6 254.26 163.741 255.783 159.418C259.148 149.989 259.309 138.714 251.821 134.523Z" fill="#FF7E36"/>
<path d="M28.3636 59.4226C28.3636 64.474 26.1364 66.9758 21.6818 66.9758C17.2273 66.9758 15 64.474 15 56.8968C15 49.3196 23.9091 0.0121089 62.9755 0.0121089C102.042 0.0121089 21.654 -0.00681412 63.9861 0.00264738C106.318 0.0121089 113 51.59 113 59.4226C113 67.2553 110.849 66.9758 106.318 66.9999C101.787 67.0239 99.6364 64.1205 99.6364 59.4226C99.6364 54.7247 92.9545 18.9555 63.953 18.9457C34.9514 18.9359 93.5175 18.9555 63.1678 18.9555C32.8182 18.9555 28.3636 54.3711 28.3636 59.4226Z" fill="#232323"/>
<path d="M166.227 59.4226C166.227 64.474 164.023 66.9758 159.614 66.9758C155.205 66.9758 153 64.474 153 56.8968C153 49.3196 161.818 0.0121123 200.486 0.0121123C239.154 0.0121123 159.586 -0.00680981 201.486 0.00265169C243.386 0.0121132 250 51.59 250 59.4226C250 67.2553 247.871 66.9758 243.386 66.9999C238.902 67.0239 236.773 64.1205 236.773 59.4226C236.773 54.7247 230.159 18.9555 201.453 18.9457C172.748 18.9359 230.716 18.9555 200.676 18.9555C170.636 18.9555 166.227 54.3711 166.227 59.4226Z" fill="#232323"/>
</svg>
